<svg width="127" height="74" viewBox="0 0 127 74" fill="none" xmlns="http://www.w3.org/2000/svg">
<rect x="43.5" y="0.5" width="40" height="40" rx="20" fill="#2B77EB"/>
<path d="M64 11.75V28.25M72.25 20L55.75 20" stroke="white" stroke-width="2.21988" stroke-linecap="round"/>
<path d="M13 70.5H11.18L3.86 59.4V70.5H2.04V56.54H3.86L11.18 67.62V56.54H13V70.5ZM26.1025 64.6C26.1025 64.9467 26.0825 65.3133 26.0425 65.7H17.2825C17.3492 66.78 17.7158 67.6267 18.3825 68.24C19.0625 68.84 19.8825 69.14 20.8425 69.14C21.6292 69.14 22.2825 68.96 22.8025 68.6C23.3358 68.2267 23.7092 67.7333 23.9225 67.12H25.8825C25.5892 68.1733 25.0025 69.0333 24.1225 69.7C23.2425 70.3533 22.1492 70.68 20.8425 70.68C19.8025 70.68 18.8692 70.4467 18.0425 69.98C17.2292 69.5133 16.5892 68.8533 16.1225 68C15.6558 67.1333 15.4225 66.1333 15.4225 65C15.4225 63.8667 15.6492 62.8733 16.1025 62.02C16.5558 61.1667 17.1892 60.5133 18.0025 60.06C18.8292 59.5933 19.7758 59.36 20.8425 59.36C21.8825 59.36 22.8025 59.5867 23.6025 60.04C24.4025 60.4933 25.0158 61.12 25.4425 61.92C25.8825 62.7067 26.1025 63.6 26.1025 64.6ZM24.2225 64.22C24.2225 63.5267 24.0692 62.9333 23.7625 62.44C23.4558 61.9333 23.0358 61.5533 22.5025 61.3C21.9825 61.0333 21.4025 60.9 20.7625 60.9C19.8425 60.9 19.0558 61.1933 18.4025 61.78C17.7625 62.3667 17.3958 63.18 17.3025 64.22H24.2225ZM43.1048 59.54L39.6848 70.5H37.8048L35.1648 61.8L32.5248 70.5H30.6448L27.2048 59.54H29.0648L31.5848 68.74L34.3048 59.54H36.1648L38.8248 68.76L41.3048 59.54H43.1048ZM59.5631 60.64C59.5631 61.8 59.1631 62.7667 58.3631 63.54C57.5765 64.3 56.3698 64.68 54.7431 64.68H52.0631V70.5H50.2431V56.56H54.7431C56.3165 56.56 57.5098 56.94 58.3231 57.7C59.1498 58.46 59.5631 59.44 59.5631 60.64ZM54.7431 63.18C55.7565 63.18 56.5031 62.96 56.9831 62.52C57.4631 62.08 57.7031 61.4533 57.7031 60.64C57.7031 58.92 56.7165 58.06 54.7431 58.06H52.0631V63.18H54.7431ZM63.6452 61.32C63.9652 60.6933 64.4185 60.2067 65.0052 59.86C65.6052 59.5133 66.3318 59.34 67.1852 59.34V61.22H66.7052C64.6652 61.22 63.6452 62.3267 63.6452 64.54V70.5H61.8252V59.54H63.6452V61.32ZM74.0661 70.68C73.0394 70.68 72.1061 70.4467 71.2661 69.98C70.4394 69.5133 69.7861 68.8533 69.3061 68C68.8394 67.1333 68.6061 66.1333 68.6061 65C68.6061 63.88 68.8461 62.8933 69.3261 62.04C69.8194 61.1733 70.4861 60.5133 71.3261 60.06C72.1661 59.5933 73.1061 59.36 74.1461 59.36C75.1861 59.36 76.1261 59.5933 76.9661 60.06C77.8061 60.5133 78.4661 61.1667 78.9461 62.02C79.4394 62.8733 79.6861 63.8667 79.6861 65C79.6861 66.1333 79.4328 67.1333 78.9261 68C78.4328 68.8533 77.7594 69.5133 76.9061 69.98C76.0528 70.4467 75.1061 70.68 74.0661 70.68ZM74.0661 69.08C74.7194 69.08 75.3328 68.9267 75.9061 68.62C76.4794 68.3133 76.9394 67.8533 77.2861 67.24C77.6461 66.6267 77.8261 65.88 77.8261 65C77.8261 64.12 77.6528 63.3733 77.3061 62.76C76.9594 62.1467 76.5061 61.6933 75.9461 61.4C75.3861 61.0933 74.7794 60.94 74.1261 60.94C73.4594 60.94 72.8461 61.0933 72.2861 61.4C71.7394 61.6933 71.2994 62.1467 70.9661 62.76C70.6328 63.3733 70.4661 64.12 70.4661 65C70.4661 65.8933 70.6261 66.6467 70.9461 67.26C71.2794 67.8733 71.7194 68.3333 72.2661 68.64C72.8128 68.9333 73.4128 69.08 74.0661 69.08ZM81.3991 64.98C81.3991 63.86 81.6257 62.88 82.0791 62.04C82.5324 61.1867 83.1524 60.5267 83.9391 60.06C84.7391 59.5933 85.6324 59.36 86.6191 59.36C87.4724 59.36 88.2657 59.56 88.9991 59.96C89.7324 60.3467 90.2924 60.86 90.6791 61.5V55.7H92.5191V70.5H90.6791V68.44C90.3191 69.0933 89.7857 69.6333 89.0791 70.06C88.3724 70.4733 87.5457 70.68 86.5991 70.68C85.6257 70.68 84.7391 70.44 83.9391 69.96C83.1524 69.48 82.5324 68.8067 82.0791 67.94C81.6257 67.0733 81.3991 66.0867 81.3991 64.98ZM90.6791 65C90.6791 64.1733 90.5124 63.4533 90.1791 62.84C89.8457 62.2267 89.3924 61.76 88.8191 61.44C88.2591 61.1067 87.6391 60.94 86.9591 60.94C86.2791 60.94 85.6591 61.1 85.0991 61.42C84.5391 61.74 84.0924 62.2067 83.7591 62.82C83.4257 63.4333 83.2591 64.1533 83.2591 64.98C83.2591 65.82 83.4257 66.5533 83.7591 67.18C84.0924 67.7933 84.5391 68.2667 85.0991 68.6C85.6591 68.92 86.2791 69.08 86.9591 69.08C87.6391 69.08 88.2591 68.92 88.8191 68.6C89.3924 68.2667 89.8457 67.7933 90.1791 67.18C90.5124 66.5533 90.6791 65.8267 90.6791 65ZM105.315 59.54V70.5H103.495V68.88C103.148 69.44 102.661 69.88 102.035 70.2C101.421 70.5067 100.741 70.66 99.9947 70.66C99.1414 70.66 98.3747 70.4867 97.6947 70.14C97.0147 69.78 96.4747 69.2467 96.0747 68.54C95.688 67.8333 95.4947 66.9733 95.4947 65.96V59.54H97.2947V65.72C97.2947 66.8 97.568 67.6333 98.1147 68.22C98.6614 68.7933 99.408 69.08 100.355 69.08C101.328 69.08 102.095 68.78 102.655 68.18C103.215 67.58 103.495 66.7067 103.495 65.56V59.54H105.315ZM107.708 65C107.708 63.8667 107.934 62.88 108.388 62.04C108.841 61.1867 109.468 60.5267 110.268 60.06C111.081 59.5933 112.008 59.36 113.048 59.36C114.394 59.36 115.501 59.6867 116.368 60.34C117.248 60.9933 117.828 61.9 118.108 63.06H116.148C115.961 62.3933 115.594 61.8667 115.048 61.48C114.514 61.0933 113.848 60.9 113.048 60.9C112.008 60.9 111.168 61.26 110.528 61.98C109.888 62.6867 109.568 63.6933 109.568 65C109.568 66.32 109.888 67.34 110.528 68.06C111.168 68.78 112.008 69.14 113.048 69.14C113.848 69.14 114.514 68.9533 115.048 68.58C115.581 68.2067 115.948 67.6733 116.148 66.98H118.108C117.814 68.1 117.228 69 116.348 69.68C115.468 70.3467 114.368 70.68 113.048 70.68C112.008 70.68 111.081 70.4467 110.268 69.98C109.468 69.5133 108.841 68.8533 108.388 68C107.934 67.1467 107.708 66.1467 107.708 65ZM122.756 61.04V67.5C122.756 68.0333 122.869 68.4133 123.096 68.64C123.323 68.8533 123.716 68.96 124.276 68.96H125.616V70.5H123.976C122.963 70.5 122.203 70.2667 121.696 69.8C121.189 69.3333 120.936 68.5667 120.936 67.5V61.04H119.516V59.54H120.936V56.78H122.756V59.54H125.616V61.04H122.756Z" fill="#2B77EB"/>
</svg>
